Patient4_TMGait_0pt4_01_right_16_EMG.mot
version=1
nRows=26
nColumns=33
inDegrees=no
endheader
time	1LAddLong	2LGlutMax	3LGlutMed	4LIliopsoas	5LSemiMemb	6LBicFemLong	7LRecFem	8LVastMed	9LVastLat	10LGasMed	11LTibAnt	12lTibPost	13LPeroneusLong	14LSol	15LExtDigLong	16LFlexDigLong	17RAddLong	18RGlutMax	19RGlutMed	20RIliopsoas	21RSemiMemb	22RBicFemLong	23RRecFem	24RVastMed	25RVastLat	26RGasMed	27RTibAnt	28RTibPost	29RPeroneusLong	30RSol	31RExtDigLong	32RFlexDigLong
21.555	-0.003357	0.049896	0.058441	0.025635	-0.22583	-0.17502	0.02533	-0.040741	0.07843	0.072632	-0.01297	-0.00412	-0.64316	0.04303	-0.044556	0.003204	0.00351	-0.14633	-0.16174	0.069427	0.13916	0.016937	-0.1239	0.03952	-0.007019	0.026245	0.098724	-0.021667	0.23804	0.67596	0.003815	-0.017548
21.556	0.011597	0.075531	0.026855	0.000153	-0.079651	-0.17822	0.016479	-0.006409	-0.005951	-0.090332	0.004883	-0.001678	-0.34485	0.083008	-0.030518	0.003662	0.013123	-0.11765	-0.38788	0.061493	0.18646	0.017853	-0.11841	-0.065613	0.010529	-0.13367	0.11551	-0.03006	0.23544	1.2318	0.001984	-0.011597
21.557	0.008087	0.078278	0.013275	0.006561	0.061188	-0.1683	0.05722	-0.028076	-0.1622	-0.26718	0.014038	-0.004578	0.039673	0.037842	-0.054016	-0.003662	-0.000305	-0.10208	-0.29404	-0.019226	0.035553	0.0383	-0.0914	-0.1149	0.002441	-0.039215	0.11627	-0.00885	-0.068512	1.6341	-0.00412	-0.003052
21.558	0.020447	0.054016	0.028229	-0.020294	0.15289	-0.13306	0.06073	-0.013123	-0.20203	-0.19836	0.010681	-0.003052	0.091248	0.22553	-0.031586	-0.028229	0.00412	-0.18112	0.012512	-0.10498	-0.071869	0.16449	-0.035095	-0.1149	-0.00473	0.010681	-0.002899	-0.001831	-0.13794	1.0466	0.000153	-0.014496
21.559	0.006714	0.054932	0.015717	-0.012512	0.11566	-0.081482	0.018921	0.005035	-0.14404	-0.05722	0.010071	-0.005188	-0.020142	0.36011	-0.02182	-0.057983	-0.00824	-0.12222	0.14908	-0.056305	0.056305	0.26489	0.005646	-0.058746	-0.02121	0.03006	-0.14511	-0.20325	0.084076	0.29068	-0.000305	-0.010681
21.56	-0.007019	0.032196	-0.005188	-0.005646	0.038452	-0.059204	0.012665	0.007172	-0.087433	-0.021973	-0.014801	-0.005341	0.10757	0.093994	-0.046997	0.031128	-0.006409	-0.11383	0.066986	-0.00885	0.064697	0.18356	0.045166	-0.00351	-0.041504	-0.019073	0.010834	-0.10803	0.11185	-0.33661	0.007477	-0.012665
21.561	-0.012512	0.047913	0	0.004272	-0.041351	-0.10605	-0.016327	0.005493	-0.00412	0.020599	0.000458	-0.002594	0.015717	-0.17105	-0.019531	0.088348	-0.01709	-0.082092	0.56198	0.026093	0.055084	0.035248	0.03891	0.030823	-0.037231	-0.026245	0.11292	0.32822	0.17044	-0.44388	0.003204	-0.006104
21.562	-0.01358	0.070038	0.009766	0.007477	-0.068817	-0.11139	-0.042725	0.009918	0.099792	-0.006714	0.012817	-0.000153	0.041199	-0.31464	0.006714	-0.015411	-0.007629	-0.047913	0.051727	0.12894	0.06546	0.077057	0.1033	-0.001678	-0.052185	-0.033722	0.20111	0.13107	0.017853	-0.085449	0.001526	-0.004883
21.563	-0.021362	0.085602	0.040131	-0.006256	-0.054169	-0.02182	-0.03952	0.010529	0.12116	-0.005493	-0.002594	-0.005798	0.058136	-0.21652	0.025635	-0.036163	0.00351	-0.12497	-0.032196	0.13657	0.007629	0.092621	0.063324	0.012817	-0.10071	-0.020447	-0.017853	0.053253	-0.20706	0.032654	0.000916	-0.002136
21.564	-0.017548	0.084229	0.021362	-0.00946	-0.013885	0.022125	-0.023041	0.019226	0.10498	-0.012054	-0.004425	-0.005493	-0.002899	-0.056	0.018768	-0.024261	-0.001526	-0.16922	0.14832	0.017242	-0.098114	0.096741	-0.22125	-0.00473	-0.049896	-0.010071	-0.11078	0.009766	-0.24704	0.037994	-0.000916	-0.000458
21.565	-0.007935	0.11124	0.00885	-0.000458	0.088501	0.011139	-0.064087	0.023346	0.12451	-0.032806	-0.007324	-0.001221	0.025635	-0.12329	0.003662	-0.02594	0.008545	-0.15305	0.34302	-0.034027	-0.00885	0.037689	-0.14099	-0.11063	0.020599	0.030975	0.30487	-0.008087	-0.14526	-0.25955	0.000458	-0.007782
21.566	-0.01297	0.10895	-0.00946	0.005035	0.092926	0.081329	-0.05249	0.020752	0.11612	-0.032196	0.002594	-0.001678	0.14114	-0.16296	-0.032043	-0.043945	0.056305	-0.081177	0.05127	0.005035	0.13626	-0.085907	-0.034943	-0.15472	0.053406	0.030518	0.62363	-0.007172	-0.081635	-0.27512	-0.005493	-0.00824
21.567	-0.008698	0.12314	-0.027618	0.001068	0.030823	0.11307	-0.029755	0.027313	0.018921	0.037994	0.013275	-0.003052	0.064087	-0.052032	-0.012817	0.070496	0.031586	-0.1384	-0.57816	0.010986	0.017853	-0.053711	-0.2066	-0.18494	-0.076141	0.019531	0.88013	-0.015106	-0.083466	-0.068207	0.001678	-0.005493
21.568	0.005035	0.11932	-0.025024	-0.005341	-0.002747	0.076141	-0.013885	0.030212	-0.12909	0.047913	0.011902	-0.00061	-0.079346	0.041809	-0.003967	-0.11276	-0.004425	-0.13077	0.028534	-0.020599	0.024567	-0.017395	-0.43716	-0.06958	-0.035858	0.008698	0.44418	-0.019379	-0.1001	-0.21851	0.00351	-0.014954
21.569	0.010834	0.14587	-0.039063	-0.008392	-0.042725	0.03479	-0.002136	0.018768	-0.24139	0.052032	0.029755	0.000763	-0.063477	0.009003	-0.001526	-0.004425	0.032349	-0.11246	0.074463	-0.069275	0.037537	-0.072784	-0.27268	0.049133	0.071106	0.007935	-1.1629	-0.016479	0.021057	-0.51773	0.001221	-0.018463
21.57	0.015106	0.19699	-0.028229	-0.015106	-0.041809	0.013275	0.013733	-0.002594	-0.22385	0.14069	0.020294	0.058746	0.14877	0.022125	0.003815	0.2861	0.01297	-0.10712	0.36468	-0.13794	0.17044	-0.072174	0.016937	0.13794	0.075226	0.004883	-1.1894	-0.026398	-0.031433	-0.70023	0.005035	-0.016479
21.571	0.004578	0.1593	0.00885	0.023499	0.001526	0.011597	0.035248	-0.007019	-0.1297	0.09964	-0.001984	0.16205	0.28748	-0.069275	0.00885	-0.039978	-0.004578	-0.22568	0.15991	-0.13916	-0.028992	-0.080109	0.015259	0.077209	0.083618	0.025635	-0.44311	-0.025787	0.15411	-0.51193	0.005188	-0.005798
21.572	0.009613	0.18417	-0.039978	0.01358	-0.041809	-0.014496	0.0383	-0.012665	0.016174	0.06546	0.005341	-0.13046	0.29221	-0.044403	0.023651	-0.14816	0.012817	-0.19379	-0.25009	-0.004883	-0.24841	-0.029907	-0.09201	0.016327	0.016327	0.026398	0.14679	-0.019226	0.36118	-0.3598	0.001984	-0.011902
21.573	0.010376	0.15717	-0.014954	0.008392	-0.086517	-0.046234	-0.003204	-0.006104	0.057526	-0.01297	-0.00946	-0.069885	0.6694	0.10376	0.057068	-0.046082	0.005798	-0.17899	-0.30746	0.11536	0.099182	0.057678	-0.078125	0.02243	0.015564	0.014038	-0.22201	-0.021667	-0.017548	-0.20889	0.010834	-0.022888
21.574	0.005646	0.14023	0.024719	0.006409	-0.040283	-0.07782	-0.014343	-0.007019	0.035248	-0.1413	-0.016632	0.020142	0.5838	0.076752	0.069733	-0.005035	0.020752	-0.16449	-0.30563	0.10712	0.22797	0.079651	-0.10696	-0.021515	0.013428	0.004425	-0.20599	-0.019073	0.017548	-0.20264	0.000916	-0.022583
21.575	-0.00061	0.16327	-0.012817	0.002747	0.062866	-0.008087	-0.0383	0.006104	0.027161	-0.15045	0.010529	0.010681	-0.23804	0.14664	0.073547	-0.008087	0.019836	-0.15427	0.13397	0.050201	0.12466	0.045929	-0.34027	-0.025177	0.041046	0.017242	-0.18051	-0.015259	0.21729	-0.21896	-0.001068	-0.018768
21.576	-0.002136	0.18249	-0.001984	-0.016174	0.091095	0.050507	-0.077362	0.006256	0.14938	-0.088196	-0.003204	0.011749	-0.62118	0.21744	-0.002594	0.032654	-0.000305	-0.19424	0.35095	0.002594	-0.078125	0.13229	-0.37308	0.017548	0.12009	0.024719	-0.26184	-0.013123	0.25681	-0.16693	0.002441	-0.01236
21.577	0.01297	0.20538	-0.041656	-0.002899	0.085449	0.13168	-0.01709	0.008392	0.24963	0.003967	0.020142	0.00351	-0.16205	0.000153	-0.091858	0.018616	-0.015869	-0.16617	0.77576	0.024872	-0.24414	0.12833	-0.25482	0.099945	0.095673	0.019226	-0.01297	-0.011749	0.22308	-0.021667	0.000153	-0.012512
21.578	-0.000916	0.18417	-0.041656	-0.014496	0.007782	0.15121	0.041962	0.019379	0.2626	0.06958	0.033875	0.00473	-0.65781	-0.09552	-0.10513	0.010071	0.025787	-0.22217	0.17471	0.038452	0.09613	-0.019989	-0.13825	0.040436	0.037384	0.001678	0.19363	-0.012817	0.006256	0.21729	-0.001068	-0.018463
21.579	0.011139	0.17471	0.019226	-0.018158	-0.11688	0.097351	0.097504	0.00061	0.23209	0.10574	0.04303	-0.010681	0.071716	-0.14496	-0.10269	0.002747	0.02655	-0.21362	-0.50934	0.051422	0.23025	-0.061951	-0.10117	0.010834	0.00885	-0.020447	0.1178	-0.015411	-0.11185	0.21561	-0.003967	-0.024719
21.58	0.011749	0.15991	0.013428	0.028076	-0.1355	-0.005951	0.10651	0.003357	0.14114	0.032349	0.024872	0.037384	0.16373	0.056915	-0.04837	0.004578	0.010986	-0.19836	-0.63767	0.077362	0.13001	-0.048523	-0.074615	-0.01236	0.017853	-0.023956	0.031433	-0.011597	-0.014038	0.092316	-0.000153	-0.019989
